#!OML:ASF G:\JayActor3\Patient Classification 1\Patient 1\Session 2\male.ASF
:FULLY-SPECIFIED
:DEGREES
1323
root 51.3257 16.3777 -6.86931 1256.69 -96.4886 -533.19
lowerback 4.99062 0.111405 -0.828108
upperback 3.32045 0.0530034 -0.15957
thorax 0.611866 -0.0115943 0.298031
lowerneck -8.38366 -4.97947 -5.22395
upperneck -5.30986 -6.28921 13.7045
head 0.451304 -3.11858 4.77411
rclavicle -2.35746e-015 -1.45361e-015
rhumerus -30.6574 -5.3208 -78.1933
rradius 22.1221
rwrist 5.95139
rhand -16.082 3.76348
rfingers 7.12502
rthumb 10.121 -25.9731
lclavicle -2.35746e-015 -1.45361e-015
lhumerus -28.5974 1.63292 84.3838
lradius 43.3939
lwrist 16.5031
lhand -20.3077 17.0488
lfingers 7.12502
lthumb 6.0428 46.9426
rfemur -13.6086 -3.79976 20.5767
rtibia 39.2353
rfoot -34.0236 -14.8196
rtoes 17.7722
lfemur -20.1489 13.4787 -20.8598
ltibia 41.2818
lfoot -22.648 13.4589
ltoes -10.7661
1324
root 51.3147 16.3866 -6.87295 1256.93 -96.3136 -533.268
lowerback 4.79734 0.0966418 -0.708412
upperback 3.22933 0.0430833 -0.0201938
thorax 0.625799 -0.0142139 0.374362
lowerneck -8.29493 -4.8814 -4.99551
upperneck -5.31469 -6.17524 13.476
head 0.407304 -3.06839 4.67443
rclavicle 2.47114e-014 7.05686e-015
rhumerus -30.8086 -6.29712 -77.9498
rradius 21.7187
rwrist 6.27603
rhand -16.363 3.78913
rfingers 7.12502
rthumb 9.84993 -25.9605
lclavicle 2.47114e-014 7.05686e-015
lhumerus -28.9484 2.67806 84.5929
lradius 41.1914
lwrist 15.6531
lhand -20.3237 17.4958
lfingers 7.12502
lthumb 6.02729 47.39
rfemur -13.6872 -3.67923 20.6236
rtibia 39.0754
rfoot -33.9594 -14.7603
rtoes 17.8906
lfemur -20.2327 12.9498 -20.8202
ltibia 41.267
lfoot -22.473 11.7917
ltoes -12.4527
1325
root 51.3012 16.3953 -6.87502 1256.81 -96.132 -532.994
lowerback 4.60054 0.0862341 -0.62631
upperback 3.13537 0.0369667 0.100142
thorax 0.638843 -0.0153936 0.452019
lowerneck -8.22493 -4.7835 -4.75813
upperneck -5.27902 -6.06509 13.2471
head 0.378831 -3.018 4.57185
rclavicle 1.37658e-014 -2.28602e-015
rhumerus -30.9693 -7.28408 -77.6894
rradius 21.3199
rwrist 6.60291
rhand -16.7039 3.83446
rfingers 7.12502
rthumb 9.52104 -25.9304
lclavicle 1.37658e-014 -2.28602e-015
lhumerus -29.338 3.83078 84.7223
lradius 38.9784
lwrist 14.7374
lhand -20.4246 17.937
lfingers 7.12502
lthumb 5.92994 47.834
rfemur -13.7496 -3.51893 20.6272
rtibia 38.9359
rfoot -33.9283 -14.711
rtoes 18.0103
lfemur -20.2472 12.4067 -20.857
ltibia 41.1552
lfoot -22.4106 10.3183
ltoes -13.8549
1326
root 51.2858 16.4033 -6.87607 1256.34 -95.9527 -532.378
lowerback 4.40817 0.0768572 -0.581505
upperback 3.03672 0.0304735 0.203022
thorax 0.64471 -0.0171571 0.532651
lowerneck -8.17471 -4.68601 -4.52043
upperneck -5.20094 -5.95841 13.0211
head 0.366994 -2.96696 4.46876
rclavicle 2.02015e-014 -5.96354e-016
rhumerus -31.1439 -8.2376 -77.4294
rradius 20.9382
rwrist 6.90212
rhand -17.0786 3.90036
rfingers 7.12502
rthumb 9.15947 -25.8807
lclavicle 2.02015e-014 -5.96354e-016
lhumerus -29.7718 5.08604 84.7611
lradius 36.7708
lwrist 13.7504
lhand -20.6267 18.397
lfingers 7.12502
lthumb 5.73477 48.2994
rfemur -13.7993 -3.32356 20.5929
rtibia 38.8193
rfoot -33.9372 -14.6588
rtoes 18.1751
lfemur -20.197 11.8463 -20.957
ltibia 40.9498
lfoot -22.4111 8.9945
ltoes -15.0077
1327
root 51.2683 16.4104 -6.87623 1255.55 -95.7779 -531.459
lowerback 4.20792 0.0715753 -0.56746
upperback 2.93706 0.0282031 0.290843
thorax 0.65396 -0.0171451 0.614896
lowerneck -8.10011 -4.59443 -4.32994
upperneck -5.08312 -5.87748 12.4767
head 0.361372 -2.92785 4.73556
rclavicle -5.2181e-015 -2.98177e-015
rhumerus -31.3345 -9.12457 -77.183
rradius 20.5941
rwrist 7.13874
rhand -17.4485 3.96251
rfingers 7.12502
rthumb 8.80258 -25.8339
lclavicle -5.2181e-015 -2.98177e-015
lhumerus -30.2367 6.43817 84.7049
lradius 34.5654
lwrist 12.6905
lhand -20.9086 18.8789
lfingers 7.12502
lthumb 5.46263 48.7885
rfemur -13.8453 -3.10306 20.5273
rtibia 38.7299
rfoot -33.9838 -14.5942
rtoes 18.3827
lfemur -20.091 11.2597 -21.1048
ltibia 40.6572
lfoot -22.4532 7.7309
ltoes -15.9291
1328
root 51.249 16.4163 -6.87556 1254.52 -95.6055 -530.294
lowerback 3.9971 0.071901 -0.574707
upperback 2.83985 0.0325782 0.366516
thorax 0.671609 -0.0140706 0.69638
lowerneck -8.0886 -4.50848 -4.11699
upperneck -4.94763 -5.78665 12.2836
head 0.379854 -2.88099 4.62523
rclavicle -1.1778e-014 1.03368e-014
rhumerus -31.5361 -9.91343 -76.9641
rradius 20.2999
rwrist 7.29105
rhand -17.7958 4.02256
rfingers 7.12502
rthumb 8.46742 -25.7877
lclavicle -1.1778e-014 1.03368e-014
lhumerus -30.73 7.87198 84.551
lradius 32.376
lwrist 11.5614
lhand -21.2234 19.3487
lfingers 7.12502
lthumb 5.15869 49.2659
rfemur -13.892 -2.87863 20.436
rtibia 38.6706
rfoot -34.0544 -14.4985
rtoes 18.6097
lfemur -19.9361 10.6625 -21.2855
ltibia 40.2871
lfoot -22.4992 6.46714
ltoes -16.6798
1329
root 51.228 16.4206 -6.87398 1253.34 -95.4326 -528.986
lowerback 3.76912 0.0787413 -0.588393
upperback 2.74658 0.0453767 0.432899
thorax 0.702797 -0.00688344 0.771707
lowerneck -8.08998 -4.43002 -3.92493
upperneck -4.79727 -5.70509 12.1015
head 0.407868 -2.83747 4.52267
rclavicle -1.47101e-014 -7.95139e-015
rhumerus -31.7397 -10.5921 -76.7813
rradius 20.0563
rwrist 7.35875
rhand -18.0549 4.01846
rfingers 7.12502
rthumb 8.21734 -25.8017
lclavicle -1.47101e-014 -7.95139e-015
lhumerus -31.2497 9.39157 84.285
lradius 30.1963
lwrist 10.3839
lhand -21.5357 19.7448
lfingers 7.12502
lthumb 4.85709 49.6691
rfemur -13.9465 -2.67143 20.329
rtibia 38.6451
rfoot -34.1354 -14.3586
rtoes 18.8314
lfemur -19.7429 10.0696 -21.483
ltibia 39.8499
lfoot -22.5092 5.16917
ltoes -17.2731
1330
root 51.2052 16.4228 -6.87155 1252.09 -95.2544 -527.611
lowerback 3.52382 0.0944499 -0.602649
upperback 2.65898 0.0698714 0.49452
thorax 0.749319 0.00605267 0.842212
lowerneck -8.09324 -4.36131 -3.75632
upperneck -4.64443 -5.63473 11.9292
head 0.43948 -2.79896 4.42817
rclavicle 1.90833e-014 1.59028e-015
rhumerus -31.9421 -11.1352 -76.6452
rradius 19.8702
rwrist 7.3244
rhand -18.2557 3.97792
rfingers 7.12502
rthumb 8.02359 -25.8498
lclavicle 1.90833e-014 1.59028e-015
lhumerus -31.8062 10.966 83.9099
lradius 28.0542
lwrist 9.17968
lhand -21.8011 20.0804
lfingers 7.12502
lthumb 4.60081 50.0105
rfemur -14.0074 -2.49354 20.2146
rtibia 38.6545
rfoot -34.2165 -14.1712
rtoes 19.0256
lfemur -19.5156 9.49109 -21.6841
ltibia 39.3586
lfoot -22.4548 3.84279
ltoes -17.685
1331
root 51.1813 16.4225 -6.86798 1250.82 -95.0711 -526.216
lowerback 3.26666 0.119004 -0.607098
upperback 2.57618 0.10625 0.551269
thorax 0.807198 0.0249777 0.902082
lowerneck -8.09351 -4.30129 -3.61011
upperneck -4.49653 -5.57372 11.7677
head 0.471154 -2.76497 4.34211
rclavicle 1.59028e-014 6.36111e-015
rhumerus -32.1396 -11.5472 -76.5574
rradius 19.7427
rwrist 7.21796
rhand -18.3851 3.89971
rfingers 7.12502
rthumb 7.89863 -25.9327
lclavicle 1.59028e-014 6.36111e-015
lhumerus -32.4153 12.5568 83.4277
lradius 25.9798
lwrist 7.97337
lhand -21.9904 20.3176
lfingers 7.12502
lthumb 4.41804 50.2516
rfemur -14.0779 -2.37551 20.0942
rtibia 38.6997
rfoot -34.2722 -13.9366
rtoes 19.1314
lfemur -19.2635 8.92993 -21.884
ltibia 38.8282
lfoot -22.3136 2.5284
ltoes -17.7816
1332
root 51.1565 16.4197 -6.86371 1249.61 -94.875 -524.896
lowerback 3.00491 0.151806 -0.602261
upperback 2.49893 0.153508 0.610409
thorax 0.873131 0.0492969 0.959195
lowerneck -8.07747 -4.24746 -3.48771
upperneck -4.36704 -5.5175 11.6128
head 0.495573 -2.73405 4.26372
rclavicle 3.18055e-015 -2.38542e-015
rhumerus -32.3253 -11.8224 -76.5168
rradius 19.6702
rwrist 7.05667
rhand -18.4359 3.78737
rfingers 7.12502
rthumb 7.84965 -26.0469
lclavicle 3.18055e-015 -2.38542e-015
lhumerus -33.0933 14.1339 82.8482
lradius 24.0092
lwrist 6.78493
lhand -22.0726 20.5043
lfingers 7.12502
lthumb 4.33867 50.4399
rfemur -14.1541 -2.31117 19.9817
rtibia 38.7773
rfoot -34.3011 -13.6589
rtoes 19.1542
lfemur -18.9896 8.39397 -22.0662
ltibia 38.2772
lfoot -22.0693 1.33718
ltoes -17.3677
